<svg width="512" height="512" viewBox="0 0 512 512" fill="none" xmlns="http://www.w3.org/2000/svg">
  <rect width="512" height="512" rx="120" fill="#0f172a"/>
  <!-- Stylized Runner Silhouette -->
  <path d="M280 120C280 136.569 266.569 150 250 150C233.431 150 220 136.569 220 120C220 103.431 233.431 90 250 90C266.569 90 280 103.431 280 120Z" fill="#22c55e"/>
  <path d="M220 180L160 240L180 260L210 230V320L150 420H190L230 350V250L270 210H330V180H220Z" fill="#38bdf8"/>
  <path d="M280 250L320 320L380 320V290L340 290L300 220L280 250Z" fill="#38bdf8"/>
  <path d="M260 350L280 420H320L290 330L260 350Z" fill="#38bdf8"/>
  
  <!-- Audio Waves -->
  <rect x="400" y="200" width="20" height="112" rx="10" fill="#22c55e">
    <animate attributeName="height" values="60;112;60" dur="1s" repeatCount="indefinite" />
  </rect>
  <rect x="440" y="220" width="20" height="72" rx="10" fill="#38bdf8">
    <animate attributeName="height" values="40;72;40" dur="1.2s" repeatCount="indefinite" />
  </rect>
  <rect x="360" y="220" width="20" height="72" rx="10" fill="#38bdf8">
    <animate attributeName="height" values="40;72;40" dur="0.8s" repeatCount="indefinite" />
  </rect>
</svg>
